# xmcd
#
# Track frame offsets: 
#        150
#        17334
#        33485
#        50835
#        72135
#        84291
#        101518
#        119152
#        141653
#        161768
#        188761
#        200484
#
# Disc length: 2878 seconds
#
# Revision: 0
# Processed by: cddbd v1.5.2PL0 Copyright (c) Steve Scherf et al.
# Submitted via: ExactAudioCopy v1.3
#
DISCID=aa0b3c0c
DTITLE=Mitch Woods - Jukebox Drive
DYEAR=2008
DGENRE=Piano Blues, Boogie Woogie
TTITLE0=Jukebox Drive
TTITLE1=Drunk
TTITLE2=Boppin' The Boogie
TTITLE3=Blue Light Boogie
TTITLE4=Saturday Night Boogie Woogie Man
TTITLE5=Blues Hangover
TTITLE6=Boogie Woogie Bar-B-Q
TTITLE7=Tipitina
TTITLE8=Boom Boom
TTITLE9=Parchman Farm
TTITLE10=Swell Lookin' Babe
TTITLE11=Mitch's Boogie
EXTD=
EXTT0=
EXTT1=
EXTT2=
EXTT3=
EXTT4=
EXTT5=
EXTT6=
EXTT7=
EXTT8=
EXTT9=
EXTT10=
EXTT11=
PLAYORDER=
